# WaveFront *.obj file (generated by CINEMA 4D)

v -0.23999999463558 1.98000001907349 -0.15999999642372
v -0.23999999463558 1.98000001907349 0.21999999880791
v 0.23000000417233 1.98000001907349 0.21999999880791
v 0.23000000417233 1.98000001907349 -0.15999999642372
v -1.00999999046326 0 -0.99000000953674
v -0.99000000953674 0 1.03999996185303
v -1.01999998092651 1.99000000953674 1.03999996185303
v -1.01999998092651 1.99000000953674 -0.99000000953674
v 1 0 1.03999996185303
v 1 0 -0.99000000953674
v 1 1.99000000953674 -0.99000000953674
v 1 1.99000000953674 1.03999996185303
# 12 vertices

vn 0 -1 0
vn 0.99993735551834 0.01004948187619 -0.00492592481896
vn -1 0 0
vn 0 0 -1
vn 0 1 0
# 5 normals

vt 0.908975481987 0.99284464120865 0
vt 0.99031776189804 0.99284464120865 0
vt 0.99031776189804 0.91849392652512 0
vt 0.908975481987 0.91849392652512 0
vt 0.46358582377434 0.67171281576157 0
vt 0.46358582377434 0.99284464120865 0
vt 0.88961094617844 0.99284464120865 0
vt 0.88954639434814 0.67171281576157 0
vt 0.46358582377434 0.65582013130188 0
vt 0.89812487363815 0.65582013130188 0
vt 0.89812487363815 0.34101605415344 0
vt 0.46358582377434 0.34101605415344 0
vt 0.01824460364878 0.007155418396 0
vt 0.01824460364878 0.32670533657074 0
vt 0.4442213177681 0.32670533657074 0
vt 0.4442213177681 0.01190114021301 0
vt 0.00968225859106 0.99284464120865 0
vt 0.4442213177681 0.99284464120865 0
vt 0.4442213177681 0.6732947230339 0
vt 0.00968225859106 0.6732947230339 0
vt 0.00968225859106 0.34417986869812 0
vt 0.00968225859106 0.6589840054512 0
vt 0.4442213177681 0.6589840054512 0
vt 0.4442213177681 0.34101605415344 0
# 24 texture coordinates

o CornellBox-Empty-RG.obj.1
usemtl light
f 4/1/1 3/2/1 2/3/1 1/4/1

usemtl leftWall
f 8/5/2 7/6/2 6/7/2 5/8/2

usemtl rightWall
f 12/9/3 11/10/3 10/11/3 9/12/3

usemtl backWall
f 7/13/4 12/14/4 9/15/4 6/16/4

usemtl ceiling
f 11/17/1 12/18/1 7/19/1 8/20/1

usemtl floor
f 6/21/5 9/22/5 10/23/5 5/24/5

